<svg version="1.1" id="Layer_1" xmlns="http://www.w3.org/2000/svg" xmlns:xlink="http://www.w3.org/1999/xlink" x="0px" y="0px"
	 viewBox="60 223.1 600 195.9" style="enable-background:new 60 223.1 600 195.9;" xml:space="preserve">
	<g>
		<rect x="60" y="223.1" style="fill: none;" width="600" height="195.9"/>
		<rect x="443.4" y="305.4" style="fill:#FFFFFF;" width="7" height="71"/>
		<polygon style="fill:#FFFFFF;" points="519.7,305.4 511.4,305.4 491.6,335.1 471.6,305.4 463.3,305.4 487.2,340.6 462.7,376.4 471.2,376.4
			491.6,346.3 511.9,376.4 520.3,376.4 495.9,340.4 	"/>
		<path style="fill:#FFFFFF;" d="M585.5,313.4c-6.9-6.6-15.8-10.1-26.4-10.1c-10.8,0-19.7,3.5-26.8,10.5c-7,7-10.4,15.8-10.4,26.6
			c0,10.7,3.5,19.5,10.6,26.6c7,7.1,15.8,10.6,26.6,10.6c4.5,0,8.6-0.6,12.2-1.7c9.4-3,16.3-8.8,20.9-17.4l-6.4-2.9
			c-3.9,6.4-8.4,10.6-13.4,12.7c-3.9,1.6-8.3,2.4-13.2,2.4c-9.5,0-17-2.6-22.4-8.4c-5.2-5.7-7.8-13.8-7.8-22.8h67.3
			C596.1,328.4,592.6,320,585.5,313.4z M559.1,310.3c7.1,0,13.3,2.1,18.8,6c5.7,4.1,9.1,9.1,10.3,16.1H530
			C534.5,317.4,544.3,310.3,559.1,310.3z"/>
		<rect x="607.4" y="269.4" style="fill:#FFFFFF;" width="6" height="107"/>
		<path style="fill:#FFFFFF;" d="M397.2,268.3c-11.3,0-20.8,5.4-27.8,13.8v-12.7h-7v107h7v-51.2c7,8.4,16.5,13.8,27.8,13.8
			c19.4,0,35-15.8,35-35.3S416.5,268.3,397.2,268.3z M397.1,331.4c-15.2,0-27.5-12.6-27.5-28c0-15.5,12.3-28,27.5-28
			s27.5,12.6,27.5,28C424.6,318.9,412.3,331.4,397.1,331.4z"/>
		<circle style="fill:#FFFFFF;" cx="446.5" cy="289.2" r="5.7"/>
		<polygon style="fill:#FFFFFF;" points="316.5,330.5 305.6,269.4 289.9,269.4 279.7,330.6 270.2,269.4 250.8,269.4 270.8,376.2 270.9,376.4
			289.1,376.4 298.1,313.7 307.9,376.4 325.9,376.4 344.8,269.4 325.5,269.4 	"/>
		<path style="fill:#FFFFFF;" d="M211.4,269.4H198l-21.2,107h19.3l3.7-25H223l3.7,25H246l-21.2-107C224.8,269.4,211.4,269.4,211.4,269.4z
			 M211.4,334.4h-9.2l9.2-48.2l9.2,48.2H211.4z"/>
		<path style="fill:#FFFFFF;" d="M164.8,302c0-0.2,0-0.4,0-0.6c0-0.2,0-0.4,0-0.6c0-17.6-11-31.4-30.9-31.4h-15h-0.3H99.4v32v32.1v43h20v-43
			h10.2l16.6,43h21.2l-19.5-46.1C158.9,325.3,164.8,314.9,164.8,302z M132.4,316.4h-13v-29h13c8.5,0,13.2,7.2,13.3,14.5
			C145.6,309.3,141,316.4,132.4,316.4z"/>
	</g>
</svg>
